<mxfile host="65bd71144e">
    <diagram id="tB0AF8vTnPEv-lOknPYl" name="Page-1">
        <mxGraphModel dx="684" dy="255" grid="1" gridSize="10" guides="1" tooltips="1" connect="1" arrows="1" fold="1" page="1" pageScale="1" pageWidth="827" pageHeight="1169" math="0" shadow="0">
            <root>
                <mxCell id="0"/>
                <mxCell id="1" parent="0"/>
                <mxCell id="14" value="AWS" style="rounded=0;whiteSpace=wrap;html=1;verticalAlign=bottom;" parent="1" vertex="1">
                    <mxGeometry x="250" y="80" width="580" height="290" as="geometry"/>
                </mxCell>
                <mxCell id="4" value="" style="edgeStyle=none;html=1;" parent="1" source="2" target="3" edge="1">
                    <mxGeometry relative="1" as="geometry"/>
                </mxCell>
                <mxCell id="2" value="user" style="shape=umlActor;verticalLabelPosition=bottom;verticalAlign=top;html=1;outlineConnect=0;" parent="1" vertex="1">
                    <mxGeometry x="60" y="210" width="30" height="60" as="geometry"/>
                </mxCell>
                <mxCell id="7" value="" style="edgeStyle=none;html=1;" parent="1" source="3" target="6" edge="1">
                    <mxGeometry relative="1" as="geometry"/>
                </mxCell>
                <mxCell id="3" value="browser" style="aspect=fixed;perimeter=ellipsePerimeter;html=1;align=center;shadow=0;dashed=0;fontColor=#4277BB;labelBackgroundColor=#ffffff;fontSize=12;spacingTop=3;image;image=img/lib/ibm/users/browser.svg;" parent="1" vertex="1">
                    <mxGeometry x="150" y="210" width="60" height="60" as="geometry"/>
                </mxCell>
                <mxCell id="9" value="" style="edgeStyle=none;html=1;" parent="1" source="6" target="8" edge="1">
                    <mxGeometry relative="1" as="geometry"/>
                </mxCell>
                <mxCell id="6" value="s3chat" style="verticalLabelPosition=bottom;html=1;verticalAlign=top;strokeWidth=1;align=center;outlineConnect=0;dashed=0;outlineConnect=0;shape=mxgraph.aws3d.s3Bucket;fillColor=#4286c5;strokeColor=#57A2D8;aspect=fixed;" parent="1" vertex="1">
                    <mxGeometry x="300" y="210" width="61.5" height="63.800000000000004" as="geometry"/>
                </mxCell>
                <mxCell id="11" value="" style="edgeStyle=none;html=1;" parent="1" source="8" target="10" edge="1">
                    <mxGeometry relative="1" as="geometry"/>
                </mxCell>
                <mxCell id="8" value="Amazon API Gateway" style="sketch=0;outlineConnect=0;fontColor=#232F3E;gradientColor=none;strokeColor=#ffffff;fillColor=#232F3E;dashed=0;verticalLabelPosition=middle;verticalAlign=bottom;align=center;html=1;whiteSpace=wrap;fontSize=10;fontStyle=1;spacing=3;shape=mxgraph.aws4.productIcon;prIcon=mxgraph.aws4.api_gateway;" parent="1" vertex="1">
                    <mxGeometry x="400" y="185" width="80" height="110" as="geometry"/>
                </mxCell>
                <mxCell id="16" value="" style="edgeStyle=none;html=1;" parent="1" source="10" target="15" edge="1">
                    <mxGeometry relative="1" as="geometry"/>
                </mxCell>
                <mxCell id="10" value="chat-api-py-proxy" style="outlineConnect=0;dashed=0;verticalLabelPosition=bottom;verticalAlign=top;align=center;html=1;shape=mxgraph.aws3.lambda_function;fillColor=#5294CF;gradientColor=none;" parent="1" vertex="1">
                    <mxGeometry x="550" y="208.5" width="60" height="63" as="geometry"/>
                </mxCell>
                <mxCell id="15" value="&lt;a class=&quot;awsui_link_4c84z_nulx3_3 awsui_weight-normal_4c84z_nulx3_67 awsui_font-size-body-m_4c84z_nulx3_84&quot; href=&quot;https://eu-central-1.console.aws.amazon.com/dynamodbv2/home?region=eu-central-1#table?name=Chat-Conversations&quot; style=&quot;background-color: rgb(255 , 255 , 255) ; border-collapse: separate ; border-spacing: 0px ; caption-side: top ; cursor: auto ; direction: ltr ; empty-cells: show ; font-stretch: normal ; list-style: outside none disc ; text-align: left ; text-shadow: none ; visibility: visible ; box-sizing: border-box ; font-size: 14px ; font-family: &amp;#34;amazon ember&amp;#34; , &amp;#34;helvetica neue&amp;#34; , &amp;#34;roboto&amp;#34; , &amp;#34;arial&amp;#34; , sans-serif ; transition-property: , ; display: inline&quot;&gt;Chat-Conversations&lt;/a&gt;&lt;br&gt;&lt;a class=&quot;awsui_link_4c84z_nulx3_3 awsui_weight-normal_4c84z_nulx3_67 awsui_font-size-body-m_4c84z_nulx3_84&quot; href=&quot;https://eu-central-1.console.aws.amazon.com/dynamodbv2/home?region=eu-central-1#table?name=Chat-Messages&quot; style=&quot;background-color: rgb(255 , 255 , 255) ; border-collapse: separate ; border-spacing: 0px ; caption-side: top ; cursor: auto ; direction: ltr ; empty-cells: show ; font-stretch: normal ; list-style: outside none disc ; text-align: left ; text-shadow: none ; visibility: visible ; box-sizing: border-box ; font-size: 14px ; font-family: &amp;#34;amazon ember&amp;#34; , &amp;#34;helvetica neue&amp;#34; , &amp;#34;roboto&amp;#34; , &amp;#34;arial&amp;#34; , sans-serif ; transition-property: , ; display: inline&quot;&gt;Chat-Messages&lt;/a&gt;" style="outlineConnect=0;dashed=0;verticalLabelPosition=bottom;verticalAlign=top;align=center;html=1;shape=mxgraph.aws3.dynamo_db;fillColor=#2E73B8;gradientColor=none;" parent="1" vertex="1">
                    <mxGeometry x="710" y="201.4" width="72" height="81" as="geometry"/>
                </mxCell>
            </root>
        </mxGraphModel>
    </diagram>
</mxfile>